<?xml version="1.0" encoding="UTF-8"?>
<svg width="76px" height="93px" viewBox="0 0 76 93" version="1.1" xmlns="http://www.w3.org/2000/svg" xmlns:xlink="http://www.w3.org/1999/xlink">
    <title>pdf</title>
    <g id="Page-1" stroke="none" stroke-width="1" fill="none" fill-rule="evenodd">
        <g id="pdf" fill-rule="nonzero">
            <path d="M9.56391413,-3.70929996e-07 C4.29171033,-3.70929996e-07 8.90712002e-08,4.29511932 8.90712002e-08,9.56713461 L8.90712002e-08,83.0373427 C8.90712002e-08,88.3093728 4.29171033,92.604166 9.56391413,92.604166 L65.744293,92.604166 C71.0164955,92.604166 75.3082057,88.3095509 75.3082057,83.0373427 L75.3082057,22.6243763 C75.3082057,22.6243763 75.4586445,20.8553662 74.6907124,19.1339431 C73.9708703,17.5203398 72.7976427,16.397255 72.7976427,16.397255 C72.7947421,16.3932831 72.791823,16.3893249 72.7888853,16.3853805 L58.8503293,2.71353255 C58.8426792,2.70573373 58.834948,2.69801492 58.827137,2.69037738 C58.827137,2.69037738 57.6371112,1.55719927 55.8730213,0.800203513 C53.795891,-0.0911218794 51.654927,0.00296823987 51.654927,0.00296823987 L51.6868158,-3.70929996e-07 L9.56391413,-3.70929996e-07 Z" id="path890" fill="#011638"></path>
            <path d="M51.6868773,3.14286788 C51.6975066,3.14286788 51.7081367,3.14286788 51.7187661,3.14286788 C51.7187661,3.14286788 53.4031625,3.15919524 54.6351943,3.68788998 C55.8210025,4.19673956 56.6618201,4.967005 56.6674171,4.97217039 C56.6674357,4.97218523 56.6732208,4.97810761 56.6732208,4.97810761 L70.5769867,18.6180579 C70.5769867,18.6180579 71.4146604,19.5024367 71.8206728,20.4125683 C72.1483763,21.1471658 72.1685569,22.4911747 72.1685569,22.4911747 C72.1670958,22.5133663 72.166106,22.5355864 72.1655883,22.55782 L72.1655883,83.0374614 C72.1655883,86.6234245 69.330182,89.4617282 65.7442283,89.4617282 L9.56391413,89.4617282 C5.97795994,89.4617282 3.14255367,86.6236026 3.14255367,83.0374614 L3.14255367,9.56725336 C3.14255367,5.98112698 5.97795994,3.14286788 9.56391413,3.14286788 L51.6868773,3.14286788 Z" id="rect2684" fill="#F5F5F5"></path>
            <path d="M18.7858647,64.2973563 C16.6236918,62.1351834 18.9630017,59.1640493 25.3115837,56.0090394 L29.3062057,54.0238849 L30.8624257,50.6189031 C31.7183504,48.7461698 32.995803,45.6904748 33.7012192,43.8285028 L34.9838075,40.4430693 L34.099963,37.9376657 C33.0131991,34.8570344 32.6256618,30.2276194 33.315181,28.5629709 C34.2491505,26.3081774 37.308393,26.5395213 38.5195417,28.9565345 C39.465445,30.8442147 39.3687425,34.2627482 38.2474833,38.574032 L37.328253,42.1085342 L38.1379416,43.4830604 C38.5832778,44.2390468 39.8840785,46.0340915 41.0286264,47.4720272 L43.1797411,50.1478143 L45.8564971,49.7985127 C54.3600887,48.6888757 57.2726569,50.5748044 57.2726569,53.2788526 C57.2726569,56.6915824 50.5955218,56.9732739 44.988417,53.0350851 C43.726807,52.1489845 42.860427,51.2687469 42.860427,51.2687469 C42.860427,51.2687469 39.3477698,51.9838555 37.6182996,52.4500016 C35.8331151,52.9311689 34.9424829,53.2325126 32.3274797,54.1151845 C32.3274797,54.1151845 31.4099711,55.4476009 30.8120929,56.4162438 C28.5877425,60.0199889 25.9905792,63.0065301 24.1357911,64.0935166 C22.0590995,65.3105431 19.8820094,65.393501 18.7858647,64.2973563 L18.7858647,64.2973563 Z M22.179061,63.0851537 C23.3944548,62.3339913 25.8544387,59.4244855 27.557308,56.7241184 L28.2467531,55.6308087 L25.1074917,57.2092043 C20.2589339,59.6470126 18.0408176,61.9446283 19.1942268,63.3343983 C19.8421706,64.1151132 20.6172897,64.0503827 22.179061,63.0851537 L22.179061,63.0851537 Z M53.6731866,54.2449573 C54.8619519,53.4123065 54.6893866,51.7343735 53.3454223,51.0578568 C52.2994916,50.5313588 51.4564842,50.4231826 48.739389,50.4632885 C47.0696938,50.5771348 44.3847862,50.9136268 43.9297427,51.0159993 C43.9297427,51.0159993 45.4047207,52.0353906 46.0595666,52.4100887 C46.931314,52.9079841 49.0497237,53.8322165 50.5963699,54.3056357 C52.1220132,54.772613 53.004507,54.7233786 53.6731866,54.2449276 L53.6731866,54.2449573 Z M41.0098054,48.9816994 C40.2903626,48.2254161 39.0670129,46.6469464 38.2912704,45.4739889 C37.2767031,44.143413 36.7679426,43.2046789 36.7679426,43.2046789 C36.7679426,43.2046789 36.0263836,45.5898686 35.4179965,47.0251919 L33.5199261,51.7167251 L32.9696199,52.7808978 C32.9696199,52.7808978 35.8952497,51.8216358 37.3837809,51.432822 C38.9603608,51.0210163 42.1600827,50.3918192 42.1600827,50.3918192 L41.0098054,48.9816994 Z M36.9288858,32.6161488 C37.1123905,31.076182 37.190272,29.538501 36.6954936,28.763085 C35.3231048,27.2627936 33.6666645,28.5139146 33.9472428,32.0807599 C34.0416446,33.2806724 34.3397377,35.3318785 34.7382588,36.5961505 L35.4628522,38.8947904 L35.9728298,37.1635262 C36.253319,36.2113295 36.683545,34.1650067 36.9288858,32.6161488 L36.9288858,32.6161488 Z" id="path2697" fill="#011638"></path>
        </g>
    </g>
</svg>