<?xml version="1.0" encoding="UTF-8"?>
<svg width="370px" height="370px" viewBox="0 0 370 370" version="1.1" xmlns="http://www.w3.org/2000/svg" xmlns:xlink="http://www.w3.org/1999/xlink">
    <title>Vincent</title>
    <g id="Landing-Page" stroke="none" stroke-width="1" fill="none" fill-rule="evenodd">
        <g id="Desktop-HD-Copy-5" transform="translate(-241.000000, -116.000000)">
            <g id="Vincent" transform="translate(241.000000, 116.000000)">
                <circle id="Border" fill="#F8E16C" cx="185" cy="185" r="185"></circle>
                <g id="Icon" transform="translate(186.000000, 192.500000) scale(-1, 1) translate(-186.000000, -192.500000) translate(61.000000, 55.000000)">
                    <g id="Vincent">
                        <g id="Vince">
                            <circle id="Ear" fill="#FFE5C2" cx="225" cy="141" r="20"></circle>
                            <path d="M45,50 L225,50 L225,200 C225,241.421356 184.705627,275 135,275 C85.2943725,275 45,241.421356 45,200 L45,200 L45,50 Z" id="Head" fill="#FFE5C2"></path>
                            <path d="M250,5.48080443 C151.152301,-4.62811483 88.6489976,-1.47390687 43.5225987,21.0004598 C18.2515314,33.5862465 3.74399849,67.9194266 0,124 C22.5765409,75.7382058 98.050191,54.2951075 226.42095,59.6707052" id="Hair" fill="#1A1713"></path>
                            <g id="Eyes" transform="translate(50.000000, 125.000000)" fill="#000000">
                                <ellipse id="Oval" cx="27.5" cy="14.4983999" rx="9.5" ry="14.5"></ellipse>
                                <ellipse id="Oval-Copy-3" cx="122.5" cy="14.4983999" rx="9.5" ry="14.5"></ellipse>
                            </g>
                            <g id="Brows" transform="translate(48.000000, 102.000000)" stroke="#C1A988" stroke-linecap="square" stroke-width="4">
                                <path d="M9,13.9983999 C14.68039,7.55056032 19.476102,3.63197266 23.3871361,2.24263696 C27.2981701,0.853301261 34.1691248,0.627482011 44,1.56517921" id="Line-3"></path>
                                <path d="M111,12.9983999 C116.68039,6.55056032 121.476102,2.63197266 125.387136,1.24263696 C129.29817,-0.146698739 136.169125,-0.372517989 146,0.565179213" id="Line-3-Copy-3" transform="translate(128.500000, 6.498400) scale(-1, 1) translate(-128.500000, -6.498400) "></path>
                            </g>
                            <path d="M130,141 L119.139774,179.01079 C118.684602,180.603895 119.607078,182.264352 121.200183,182.719525 C121.507253,182.807259 121.826362,182.8454 122.145459,182.832507 L129.250412,182.545439 L129.250412,182.545439" id="Nose" stroke="#DAC09C" stroke-width="4" stroke-linecap="square"></path>
                            <path d="M126,215.9984 C148.964,215.9984 167.62348,214.023774 167.994373,211.572816 L167.97755,212.120701 C167.246082,230.378885 148.73204,244.9984 126,244.9984 C103.26796,244.9984 84.7539184,230.378885 84.0224496,212.120701 L84,211.4984 C84,213.983681 102.804041,215.9984 126,215.9984 Z" id="Mouth" fill="#000000"></path>
                        </g>
                    </g>
                </g>
            </g>
        </g>
    </g>
</svg>