<?xml version="1.0" encoding="UTF-8"?>
<svg width="214px" height="454px" viewBox="0 0 214 454" version="1.1" xmlns="http://www.w3.org/2000/svg" xmlns:xlink="http://www.w3.org/1999/xlink">
    <title>Left Stars</title>
    <g id="Landing-Page" stroke="none" stroke-width="1" fill="none" fill-rule="evenodd">
        <g id="Desktop-HD-Copy-5" transform="translate(-113.000000, -87.000000)" fill="#F8E16C">
            <g id="Left-Stars" transform="translate(113.000000, 87.000000)">
                <path d="M204.000323,414.332647 C204.000323,423.316997 208.266988,430.844901 214.000492,432.824375 L214.000492,433.841286 C208.266988,435.82076 204.000323,443.348664 204.000323,452.333013 C204.000323,452.894844 204.017008,453.450979 204.049693,454.000418 L203.950953,454.000418 C203.983638,453.450979 204.000323,452.894844 204.000323,452.333013 C204.000323,443.348782 199.73377,435.820958 194.00038,433.841364 L194.00038,433.49097 C199.73377,431.511376 204.000323,423.983552 204.000323,414.99932 C204.000323,414.663799 203.994373,414.330308 203.982617,413.999062 L204.002286,413.9991 C204.000979,414.110053 204.000323,414.221238 204.000323,414.332647 Z" id="Combined-Shape-Copy-14"></path>
                <path d="M80.9998721,0.333050042 C80.9998721,9.31739988 85.2665373,16.8453035 91.0000413,18.8247775 L91.0000413,19.8416887 C85.2665373,21.8211628 80.9998721,29.3490664 80.9998721,38.3334162 C80.9998721,38.8952467 81.0165571,39.4513818 81.0492424,40.0008206 L80.9505018,40.0008206 C80.9831871,39.4513818 80.9998721,38.8952467 80.9998721,38.3334162 C80.9998721,29.3491844 76.7333189,21.8213605 70.9999288,19.8417667 L70.9999288,19.4913726 C76.7333189,17.5117789 80.9998721,9.98395499 80.9998721,0.999723133 C80.9998721,0.664201351 80.9939215,0.330710816 80.9821663,-0.000535347112 L81.001835,-0.00049690784 C81.0005282,0.110456252 80.9998721,0.22164117 80.9998721,0.333050042 Z" id="Combined-Shape-Copy-15"></path>
                <path d="M20.9154677,317.226639 C20.9154677,327.965353 29.3790977,336.727281 39.9997046,337.205769 L39.9995544,337.269732 C29.4671449,337.751016 21.0592657,346.378904 20.9298081,356.999505 L20.904,356.999 L20.903172,356.916613 C20.7193068,346.029989 11.8368463,337.261388 0.906369123,337.261388 C0.602481554,337.261388 0.300176986,337.268165 -0.000401665149,337.281578 L-0.000171568132,337.219562 C0.29610494,337.232591 0.594055746,337.239174 0.893544052,337.239174 C11.9390788,337.239174 20.893254,328.284999 20.893254,317.239464 L20.891,317 L20.9167309,316.999505 C20.9158895,317.075116 20.9154677,317.150828 20.9154677,317.226639 Z" id="Combined-Shape-Copy-12"></path>
            </g>
        </g>
    </g>
</svg>