<?xml version="1.0" encoding="UTF-8"?>
<svg width="169px" height="458px" viewBox="0 0 169 458" version="1.1" xmlns="http://www.w3.org/2000/svg" xmlns:xlink="http://www.w3.org/1999/xlink">
    <title>Right Stars</title>
    <g id="Landing-Page" stroke="none" stroke-width="1" fill="none" fill-rule="evenodd">
        <g id="Desktop-HD-Copy-5" transform="translate(-1159.000000, -73.000000)" fill="#F8E16C">
            <g id="Right-Stars" transform="translate(1243.500000, 302.000000) scale(1, -1) translate(-1243.500000, -302.000000) translate(1159.000000, 73.000000)">
                <path d="M10.0003231,0.33345858 C10.0003231,9.31796378 14.2669883,16.8459976 20.0004923,18.8255058 L20.0004923,19.8424346 C14.2669883,21.8219429 10.0003231,29.3499767 10.0003231,38.3344819 C10.0003231,38.896169 10.016999,39.4521636 10.0496666,40.0014659 L9.95097951,40.0014659 C9.98364718,39.4521636 10.0003231,38.896169 10.0003231,38.3344819 C10.0003231,29.3500947 5.73376989,21.8221406 0.000379759677,19.8425126 L0.000379759677,19.4921125 C5.73376989,17.5124845 10.0003231,9.98453042 10.0003231,1.0001432 C10.0003231,0.664615616 9.99437253,0.331119313 9.98261727,-0.00013257817 L10.002286,-9.41382329e-05 C10.0009792,0.110860941 10.0003231,0.222047781 10.0003231,0.33345858 Z" id="Combined-Shape-Copy-11"></path>
                <path d="M159.000323,418.333459 C159.000323,427.317964 163.266988,434.845998 169.000492,436.825506 L169.000492,437.842435 C163.266988,439.821943 159.000323,447.349977 159.000323,456.334482 C159.000323,456.896169 159.016999,457.452164 159.049667,458.001466 L158.95098,458.001466 C158.983647,457.452164 159.000323,456.896169 159.000323,456.334482 C159.000323,447.350095 154.73377,439.822141 149.00038,437.842513 L149.00038,437.492112 C154.73377,435.512484 159.000323,427.98453 159.000323,419.000143 C159.000323,418.664616 158.994373,418.331119 158.982617,417.999867 L159.002286,417.999906 C159.000979,418.110861 159.000323,418.222048 159.000323,418.333459 Z" id="Combined-Shape-Copy-13"></path>
                <path d="M69.9159187,283.227042 C69.9159187,293.965756 78.3795487,302.727684 89.0001556,303.206172 L89.0000054,303.270134 C78.4675959,303.751418 70.0597167,312.379307 69.9302591,322.999908 L69.904451,322.999403 L69.903623,322.917016 C69.7197578,312.030392 60.8372973,303.261791 49.9068201,303.261791 C49.6029326,303.261791 49.300628,303.268568 49.0000493,303.28198 L49.0002794,303.219965 C49.2965559,303.232994 49.5945067,303.239577 49.8939951,303.239577 C60.9395298,303.239577 69.893705,294.285402 69.893705,283.239867 L69.891451,283.000403 L69.9171819,282.999908 C69.9163405,283.075519 69.9159187,283.151231 69.9159187,283.227042 Z" id="Combined-Shape-Copy-10"></path>
            </g>
        </g>
    </g>
</svg>