<?xml version="1.0" encoding="UTF-8"?>
<svg width="1540px" height="454px" viewBox="0 0 1540 454" version="1.1" xmlns="http://www.w3.org/2000/svg" xmlns:xlink="http://www.w3.org/1999/xlink">
    <title>Group</title>
    <g id="Landing-Page" stroke="none" stroke-width="1" fill="none" fill-rule="evenodd">
        <g id="Desktop-HD-Copy" transform="translate(-8.000000, -550.000000)" fill="#FFFFFF">
            <g id="Group" transform="translate(8.000000, 550.000000)">
                <g id="Group-2">
                    <path d="M0,65.5 C70,150.166667 151.333333,150.166667 244,65.5 C336.666667,-19.1666667 426.666667,-19.1666667 514,65.5 L514,390.5 C444,305.833333 362.666667,305.833333 270,390.5 C177.333333,475.166667 87.3333333,475.166667 0,390.5 L0,65.5 Z" id="Combined-Shape"></path>
                    <path d="M513,64.5 C583,149.166667 664.333333,149.166667 757,64.5 C849.666667,-20.1666667 939.666667,-20.1666667 1027,64.5 L1027,389.5 C957,304.833333 875.666667,304.833333 783,389.5 C690.333333,474.166667 600.333333,474.166667 513,389.5 L513,64.5 Z" id="Combined-Shape-Copy"></path>
                    <path d="M1026,63.5 C1096,148.166667 1177.33333,148.166667 1270,63.5 C1362.66667,-21.1666667 1452.66667,-21.1666667 1540,63.5 L1540,388.5 C1470,303.833333 1388.66667,303.833333 1296,388.5 C1203.33333,473.166667 1113.33333,473.166667 1026,388.5 L1026,63.5 Z" id="Combined-Shape-Copy-2"></path>
                </g>
            </g>
        </g>
    </g>
</svg>