<?xml version="1.0" encoding="UTF-8"?>
<svg width="284px" height="468px" viewBox="0 0 284 468" version="1.1" xmlns="http://www.w3.org/2000/svg" xmlns:xlink="http://www.w3.org/1999/xlink">
    <title>Left Sky</title>
    <g id="Landing-Page" stroke="none" stroke-width="1" fill="none" fill-rule="evenodd">
        <g id="Desktop-HD" transform="translate(-50.000000, -80.000000)">
            <g id="Left-Sky" transform="translate(50.000000, 80.000403)">
                <path d="M274.000323,0.333050042 C274.000323,9.31739988 278.266988,16.8453035 284.000492,18.8247775 L284.000492,19.8416887 C278.266988,21.8211628 274.000323,29.3490664 274.000323,38.3334162 C274.000323,38.8952467 274.017008,39.4513818 274.049693,40.0008206 L273.950953,40.0008206 C273.983638,39.4513818 274.000323,38.8952467 274.000323,38.3334162 C274.000323,29.3491844 269.73377,21.8213605 264.00038,19.8417667 L264.00038,19.4913726 C269.73377,17.5117789 274.000323,9.98395499 274.000323,0.999723133 C274.000323,0.664201351 273.994373,0.330710816 273.982617,-0.000535347112 L274.002286,-0.00049690784 C274.000979,0.110456252 274.000323,0.22164117 274.000323,0.333050042 Z" id="Combined-Shape-Copy-14" fill="#F8E16C"></path>
                <path d="M150.999872,428.332647 C150.999872,437.316997 155.266537,444.844901 161.000041,446.824375 L161.000041,447.841286 C155.266537,449.82076 150.999872,457.348664 150.999872,466.333013 C150.999872,466.894844 151.016557,467.450979 151.049242,468.000418 L150.950502,468.000418 C150.983187,467.450979 150.999872,466.894844 150.999872,466.333013 C150.999872,457.348782 146.733319,449.820958 140.999929,447.841364 L140.999929,447.49097 C146.733319,445.511376 150.999872,437.983552 150.999872,428.99932 C150.999872,428.663799 150.993922,428.330308 150.982166,427.999062 L151.001835,427.9991 C151.000528,428.110053 150.999872,428.221238 150.999872,428.332647 Z" id="Combined-Shape-Copy-15" fill="#F8E16C"></path>
                <path d="M149,23.9995972 C156.11267,23.9995972 162.994089,24.989699 169.513951,26.8395963 C139.336306,36.5442237 117.5,64.8468391 117.5,98.2495972 C117.5,132.558284 140.536829,161.48643 171.986049,170.409598 C164.743286,172.741218 157.018598,173.999597 149,173.999597 C107.578644,173.999597 74,140.420953 74,98.9995972 C74,57.578241 107.578644,23.9995972 149,23.9995972 Z" id="Moon" fill="#F8E16C"></path>
                <path d="M107.5,277.999597 C129.315248,277.999597 147,291.87877 147,308.999597 C147,311.425822 146.64485,313.786947 145.973124,316.0527 C146.642476,316.017393 147.318585,315.999597 148,315.999597 C164.568542,315.999597 178,326.520906 178,339.499597 C178,352.478289 164.568542,362.999597 148,362.999597 C147.665598,362.999597 147.332475,362.995311 147.000713,362.986806 L147,362.999597 L29,362.999597 L29.0007133,362.986806 C12.8947566,362.573895 2.84217094e-14,352.216341 2.84217094e-14,339.499597 C2.84217094e-14,326.781007 12.8985017,316.422292 29.0077296,316.012209 C29.337843,303.258309 42.6395276,292.999597 59,292.999597 C63.6731989,292.999597 68.0968314,293.836605 72.0399092,295.329681 C78.4751988,285.063771 91.9364368,277.999597 107.5,277.999597 Z" id="Cloud" fill-opacity="0.8" fill="#FFFFFF"></path>
            </g>
        </g>
    </g>
</svg>