<?xml version="1.0" encoding="UTF-8"?>
<svg width="590px" height="130px" viewBox="0 0 590 130" version="1.1" xmlns="http://www.w3.org/2000/svg" xmlns:xlink="http://www.w3.org/1999/xlink">
    <title>I'm Vince</title>
    <g id="Landing-Page" stroke="none" stroke-width="1" fill="none" fill-rule="evenodd">
        <g id="Desktop-HD" transform="translate(-421.000000, -200.000000)" fill="#FFFFFF">
            <g id="I'm-Vince" transform="translate(421.000000, 200.000000)">
                <g id="Vince" transform="translate(237.000000, 0.000000)">
                    <g id="e" transform="translate(270.000000, 35.000000)">
                        <path d="M11.2380897,27 C11.2380897,35.2257851 16.0135621,42.1375281 22.4764661,44.0971439 L22.4764661,46.8905909 C16.0135621,48.8502067 11.2380897,55.7619497 11.2380897,63.9877348 C11.2380897,64.2697652 11.2437035,64.5502508 11.2548065,64.8290451 L11.2213729,64.8290451 C11.232476,64.5502508 11.2380897,64.2697652 11.2380897,63.9877348 C11.2380897,55.7620713 6.46275853,48.8504111 -1.93178806e-14,46.8906778 L-2.15383267e-14,44.097057 C6.46275853,42.1373237 11.2380897,35.2256635 11.2380897,27 Z" id="Combined-Shape-Copy-40"></path>
                        <path d="M41.2380897,27 C41.2380897,35.2257851 46.0135621,42.1375281 52.4764661,44.0971439 L52.4764661,46.8905909 C46.0135621,48.8502067 41.2380897,55.7619497 41.2380897,63.9877348 C41.2380897,64.2697652 41.2437035,64.5502508 41.2548065,64.8290451 L41.2213729,64.8290451 C41.232476,64.5502508 41.2380897,64.2697652 41.2380897,63.9877348 C41.2380897,55.7620713 36.4627585,48.8504111 30,46.8906778 L30,44.097057 C36.4627585,42.1373237 41.2380897,35.2256635 41.2380897,27 Z" id="Combined-Shape-Copy-42"></path>
                        <path d="M71.2380897,27 C71.2380897,35.2257851 76.0135621,42.1375281 82.4764661,44.0971439 L82.4764661,46.8905909 C76.0135621,48.8502067 71.2380897,55.7619497 71.2380897,63.9877348 C71.2380897,64.2697652 71.2437035,64.5502508 71.2548065,64.8290451 L71.2213729,64.8290451 C71.232476,64.5502508 71.2380897,64.2697652 71.2380897,63.9877348 C71.2380897,55.7620713 66.4627585,48.8504111 60,46.8906778 L60,44.097057 C66.4627585,42.1373237 71.2380897,35.2256635 71.2380897,27 Z" id="Combined-Shape-Copy-43"></path>
                        <path d="M41.2380897,2.84217094e-14 C41.2380897,8.22578512 46.0135621,15.1375281 52.4764661,17.0971439 L52.4764661,19.8905909 C46.0135621,21.8502067 41.2380897,28.7619497 41.2380897,36.9877348 C41.2380897,37.2697652 41.2437035,37.5502508 41.2548065,37.8290451 L41.2213729,37.8290451 C41.232476,37.5502508 41.2380897,37.2697652 41.2380897,36.9877348 C41.2380897,28.7620713 36.4627585,21.8504111 30,19.8906778 L30,17.097057 C36.4627585,15.1373237 41.2380897,8.22566352 41.2380897,2.84217094e-14 Z" id="Combined-Shape-Copy-44"></path>
                        <path d="M11.2380897,57 C11.2380897,65.2257851 16.0135621,72.1375281 22.4764661,74.0971439 L22.4764661,76.8905909 C16.0135621,78.8502067 11.2380897,85.7619497 11.2380897,93.9877348 C11.2380897,94.2697652 11.2437035,94.5502508 11.2548065,94.8290451 L11.2213729,94.8290451 C11.232476,94.5502508 11.2380897,94.2697652 11.2380897,93.9877348 C11.2380897,85.7620713 6.46275853,78.8504111 -1.93178806e-14,76.8906778 L-2.15383267e-14,74.097057 C6.46275853,72.1373237 11.2380897,65.2256635 11.2380897,57 Z" id="Combined-Shape-Copy-46"></path>
                        <path d="M41.2380897,57 C41.2380897,65.2257851 46.0135621,72.1375281 52.4764661,74.0971439 L52.4764661,76.8905909 C46.0135621,78.8502067 41.2380897,85.7619497 41.2380897,93.9877348 C41.2380897,94.2697652 41.2437035,94.5502508 41.2548065,94.8290451 L41.2213729,94.8290451 C41.232476,94.5502508 41.2380897,94.2697652 41.2380897,93.9877348 C41.2380897,85.7620713 36.4627585,78.8504111 30,76.8906778 L30,74.097057 C36.4627585,72.1373237 41.2380897,65.2256635 41.2380897,57 Z" id="Combined-Shape-Copy-47"></path>
                        <path d="M71.2380897,57 C71.2380897,65.2257851 76.0135621,72.1375281 82.4764661,74.0971439 L82.4764661,76.8905909 C76.0135621,78.8502067 71.2380897,85.7619497 71.2380897,93.9877348 C71.2380897,94.2697652 71.2437035,94.5502508 71.2548065,94.8290451 L71.2213729,94.8290451 C71.232476,94.5502508 71.2380897,94.2697652 71.2380897,93.9877348 C71.2380897,85.7620713 66.4627585,78.8504111 60,76.8906778 L60,74.097057 C66.4627585,72.1373237 71.2380897,65.2256635 71.2380897,57 Z" id="Combined-Shape-Copy-48"></path>
                    </g>
                    <g id="c" transform="translate(206.000000, 35.000000)">
                        <path d="M41.455329,0.211923614 C41.455329,8.43770874 46.2308014,15.3494517 52.6937053,17.3090675 L52.6937053,20.1025145 C46.2308014,22.0621303 41.455329,28.9738733 41.455329,37.1996584 C41.455329,37.4816888 41.4609427,37.7621744 41.4720458,38.0409687 L41.4386122,38.0409687 C41.4497152,37.7621744 41.455329,37.4816888 41.455329,37.1996584 C41.455329,28.9739949 36.6799978,22.0623347 30.2172393,20.1026015 L30.2172393,17.3089806 C36.6799978,15.3492474 41.455329,8.43758713 41.455329,0.211923614 Z" id="Combined-Shape-Copy-35"></path>
                        <path d="M11.2381753,0.211923614 C11.2381753,8.43770874 16.0136477,15.3494517 22.4765517,17.3090675 L22.4765517,20.1025145 C16.0136477,22.0621303 11.2381753,28.9738733 11.2381753,37.1996584 C11.2381753,37.4816888 11.2437891,37.7621744 11.2548921,38.0409687 L11.2214585,38.0409687 C11.2325616,37.7621744 11.2381753,37.4816888 11.2381753,37.1996584 C11.2381753,28.9739949 6.46284412,22.0623347 8.55876877e-05,20.1026015 L8.55876877e-05,17.3089806 C6.46284412,15.3492474 11.2381753,8.43758713 11.2381753,0.211923614 Z" id="Combined-Shape-Copy-37"></path>
                        <path d="M11.2381753,27.8511489 C11.2381753,36.2722972 16.0130934,43.3482729 22.4754263,45.3550183 L22.4754263,47.3350144 C16.0130934,49.3417597 11.2381753,56.4177354 11.2381753,64.8388837 C11.2381753,65.2627652 11.2502733,65.6832385 11.2740754,66.0998287 L11.2022752,66.0998287 C11.2260774,65.6832385 11.2381753,65.2627652 11.2381753,64.8388837 C11.2381753,56.4174935 6.46298298,49.3413533 0.000367469505,47.3348415 L0.000367469505,45.3551911 C6.46298298,43.3486793 11.2381753,36.2725391 11.2381753,27.8511489 C11.2381753,27.7108594 11.2368501,27.5709433 11.2342141,27.4314177 C11.2395005,27.5709433 11.2381753,27.7108594 11.2381753,27.8511489 Z" id="Combined-Shape-Copy-41"></path>
                        <path d="M11.2381753,57.1716348 C11.2381753,65.39742 16.0136477,72.3091629 22.4765517,74.2687787 L22.4765517,77.0622258 C16.0136477,79.0218416 11.2381753,85.9335845 11.2381753,94.1593697 C11.2381753,94.4414 11.2437891,94.7218856 11.2548921,95.0006799 L11.2214585,95.0006799 C11.2325616,94.7218856 11.2381753,94.4414 11.2381753,94.1593697 C11.2381753,85.9337061 6.46284412,79.0220459 8.55876877e-05,77.0623127 L8.55876877e-05,74.2686918 C6.46284412,72.3089586 11.2381753,65.3972984 11.2381753,57.1716348 Z" id="Combined-Shape-Copy-38"></path>
                        <path d="M42.455329,57.1716348 C42.455329,65.39742 47.2308014,72.3091629 53.6937053,74.2687787 L53.6937053,77.0622258 C47.2308014,79.0218416 42.455329,85.9335845 42.455329,94.1593697 C42.455329,94.4414 42.4609427,94.7218856 42.4720458,95.0006799 L42.4386122,95.0006799 C42.4497152,94.7218856 42.455329,94.4414 42.455329,94.1593697 C42.455329,85.9337061 37.6799978,79.0220459 31.2172393,77.0623127 L31.2172393,74.2686918 C37.6799978,72.3089586 42.455329,65.3972984 42.455329,57.1716348 Z" id="Combined-Shape-Copy-39"></path>
                    </g>
                    <g id="n" transform="translate(138.000000, 35.000000)">
                        <path d="M12.4280778,41.1662778 C12.4280778,53.358901 17.7305246,63.5750367 24.8559891,66.2617499 L24.8559891,67.6422344 C17.7305246,70.3289476 12.4280778,80.5450833 12.4280778,92.7377064 C12.4280778,93.4999615 12.4488022,94.2544916 12.4894009,94.9999398 L12.3667546,94.9999398 C12.4073533,94.2544916 12.4280778,93.4999615 12.4280778,92.7377064 C12.4280778,80.54495 7.12551508,70.3287243 -6.71179436e-05,67.6421463 L-6.71179436e-05,67.1665999 C7.12551508,64.4800219 12.4280778,54.2637961 12.4280778,42.0710397 C12.4280778,41.6160041 12.4206924,41.1637213 12.4061025,40.7144801 L12.4305048,40.7147732 C12.428889,40.8649654 12.4280778,41.0154704 12.4280778,41.1662778 Z" id="Combined-Shape-Copy-28"></path>
                        <path d="M27.3423635,0.45199213 C27.3423635,12.6446153 32.6448103,22.860751 39.7702748,25.5474642 L39.7702748,26.9279486 C32.6448103,29.6146618 27.3423635,39.8307975 27.3423635,52.0234207 C27.3423635,52.7856758 27.3630879,53.5402059 27.4036866,54.2856541 L27.2810404,54.2856541 C27.321639,53.5402059 27.3423635,52.7856758 27.3423635,52.0234207 C27.3423635,39.8306643 22.0398008,29.6144386 14.9142186,26.9278606 L14.9142186,26.4523142 C22.0398008,23.7657361 27.3423635,13.5495104 27.3423635,1.35675403 C27.3423635,0.901718364 27.3349781,0.449435595 27.3203882,0.000194373686 L27.3447905,0.00048750977 C27.3431747,0.15067967 27.3423635,0.301184713 27.3423635,0.45199213 Z" id="Combined-Shape-Copy-29"></path>
                        <path d="M45.5709349,41.1662778 C45.5709349,53.358901 50.8733817,63.5750367 57.9988462,66.2617499 L57.9988462,67.6422344 C50.8733817,70.3289476 45.5709349,80.5450833 45.5709349,92.7377064 C45.5709349,93.4999615 45.5916593,94.2544916 45.632258,94.9999398 L45.5096118,94.9999398 C45.5502105,94.2544916 45.5709349,93.4999615 45.5709349,92.7377064 C45.5709349,80.54495 40.2683722,70.3287243 33.14279,67.6421463 L33.14279,67.1665999 C40.2683722,64.4800219 45.5709349,54.2637961 45.5709349,42.0710397 C45.5709349,41.6160041 45.5635495,41.1637213 45.5489596,40.7144801 L45.5733619,40.7147732 C45.5717461,40.8649654 45.5709349,41.0154704 45.5709349,41.1662778 Z" id="Combined-Shape-Copy-34"></path>
                    </g>
                    <g id="i" transform="translate(98.000000, 36.000000)">
                        <path d="M14.9994042,46.6013526 C14.9994042,57.33676 21.399199,66.3318628 29.9991921,68.6971699 L29.9991921,69.9123149 C21.399199,72.277622 14.9994042,81.2727248 14.9994042,92.0081322 C14.9994042,92.6791425 15.0244069,93.3433538 15.0733869,93.999572 L14.9254215,93.999572 C14.9744015,93.3433538 14.9994042,92.6791425 14.9994042,92.0081322 C14.9994042,81.2728845 8.59979977,72.2778896 -1.77635684e-15,69.9124205 L-2.66453526e-15,69.4936745 C8.59979977,67.1282054 14.9994042,58.1332105 14.9994042,47.3979627 C14.9994042,46.997401 14.9904944,46.599262 14.9728929,46.2037999 L15.0023334,46.203812 C15.0003833,46.3360531 14.9994042,46.4685697 14.9994042,46.6013526 Z" id="Combined-Shape-Copy-27"></path>
                        <path d="M15.4052339,-2.13162821e-14 C15.4052339,8.47618636 18.8438422,15.6080416 23.5134446,17.7003178 L23.5134446,18.94375 C18.8438422,21.0360262 15.4052339,28.1678814 15.4052339,36.6440678 C15.4052339,37.1810142 15.4190328,37.7125659 15.4460693,38.2377835 L14.5535877,38.2377835 C14.5806242,37.7125659 14.5944231,37.1810142 14.5944231,36.6440678 C14.5944231,28.1684856 11.1563049,21.0370429 6.48721097,18.9441975 L6.48721097,18.4964805 C11.1563049,16.4036351 14.5944231,9.27219234 14.5944231,0.796610169 C14.5944231,0.529928863 14.5910193,0.264578287 14.5842804,0.000673528149 L15.4052339,-2.13162821e-14 L15.4052339,-2.13162821e-14 Z" id="Combined-Shape-Copy-45"></path>
                    </g>
                    <g id="V">
                        <path d="M10.9995631,0.418994403 C10.9995631,11.7214334 15.6924829,21.1916982 21.9988774,23.6823291 L21.9988774,24.9621113 C15.6924829,27.4527422 10.9995631,36.923007 10.9995631,48.225446 C10.9995631,48.9318645 11.0178956,49.6311257 11.0538089,50.3219728 L10.9453173,50.3219728 C10.9812305,49.6311257 10.9995631,48.9318645 10.9995631,48.225446 C10.9995631,36.9228065 6.30647672,27.4524062 -8.68947861e-05,24.9619787 L-8.68947861e-05,24.5211714 C6.30647672,22.0307439 10.9995631,12.5603436 10.9995631,1.25770408 C10.9995631,0.835734198 10.9930218,0.416318106 10.9800995,-0.000276326816 L11.0017164,-5.96814635e-05 C11.0002828,0.139337509 10.9995631,0.279025462 10.9995631,0.418994403 Z" id="Combined-Shape-Copy-22"></path>
                        <path d="M25.6662297,42.3544783 C25.6662297,53.6569172 30.3591496,63.1271821 36.6655441,65.617813 L36.6655441,66.8975952 C30.3591496,69.3882261 25.6662297,78.8584909 25.6662297,90.1609299 C25.6662297,90.8673483 25.6845623,91.5666096 25.7204755,92.2574567 L25.611984,92.2574567 C25.6478972,91.5666096 25.6662297,90.8673483 25.6662297,90.1609299 C25.6662297,78.8582904 20.9731434,69.3878901 14.6665798,66.8974626 L14.6665798,66.4566552 C20.9731434,63.9662278 25.6662297,54.4958274 25.6662297,43.193188 C25.6662297,42.7712181 25.6596885,42.351802 25.6467662,41.9352075 L25.668383,41.9354242 C25.6669495,42.0748214 25.6662297,42.2145093 25.6662297,42.3544783 Z" id="Combined-Shape-Copy-23"></path>
                        <path d="M43.9995631,80.0964138 C43.9995631,91.3988527 48.6924829,100.869118 54.9988774,103.359748 L54.9988774,104.639531 C48.6924829,107.130162 43.9995631,116.600426 43.9995631,127.902865 C43.9995631,128.609284 44.0178956,129.308545 44.0538089,129.999392 L43.9453173,129.999392 C43.9812305,129.308545 43.9995631,128.609284 43.9995631,127.902865 C43.9995631,116.600226 39.3064767,107.129826 32.9999131,104.639398 L32.9999131,104.198591 C39.3064767,101.708163 43.9995631,92.2377629 43.9995631,80.9351234 C43.9995631,80.5131536 43.9930218,80.0937375 43.9800995,79.677143 L44.0017164,79.6773597 C44.0002828,79.8167569 43.9995631,79.9564448 43.9995631,80.0964138 Z" id="Combined-Shape-Copy-24"></path>
                        <path d="M62.3328964,42.3544783 C62.3328964,53.6569172 67.0258162,63.1271821 73.3322107,65.617813 L73.3322107,66.8975952 C67.0258162,69.3882261 62.3328964,78.8584909 62.3328964,90.1609299 C62.3328964,90.8673483 62.351229,91.5666096 62.3871422,92.2574567 L62.2786506,92.2574567 C62.3145639,91.5666096 62.3328964,90.8673483 62.3328964,90.1609299 C62.3328964,78.8582904 57.6398101,69.3878901 51.3332464,66.8974626 L51.3332464,66.4566552 C57.6398101,63.9662278 62.3328964,54.4958274 62.3328964,43.193188 C62.3328964,42.7712181 62.3263551,42.351802 62.3134329,41.9352075 L62.3350497,41.9354242 C62.3336161,42.0748214 62.3328964,42.2145093 62.3328964,42.3544783 Z" id="Combined-Shape-Copy-25"></path>
                        <path d="M76.9995631,0.418994403 C76.9995631,11.7214334 81.6924829,21.1916982 87.9988774,23.6823291 L87.9988774,24.9621113 C81.6924829,27.4527422 76.9995631,36.923007 76.9995631,48.225446 C76.9995631,48.9318645 77.0178956,49.6311257 77.0538089,50.3219728 L76.9453173,50.3219728 C76.9812305,49.6311257 76.9995631,48.9318645 76.9995631,48.225446 C76.9995631,36.9228065 72.3064767,27.4524062 65.9999131,24.9619787 L65.9999131,24.5211714 C72.3064767,22.0307439 76.9995631,12.5603436 76.9995631,1.25770408 C76.9995631,0.835734198 76.9930218,0.416318106 76.9800995,-0.000276326816 L77.0017164,-5.96814635e-05 C77.0002828,0.139337509 76.9995631,0.279025462 76.9995631,0.418994403 Z" id="Combined-Shape-Copy-26"></path>
                    </g>
                </g>
                <g id="Im" transform="translate(0.000000, 1.000000)">
                    <g id="m" transform="translate(109.000000, 34.000000)">
                        <path d="M11.9995233,0.398816585 C11.9995233,11.1574747 17.1195661,20.1720238 23.9997708,22.542185 L23.9997708,23.7596498 C17.1195661,26.1298111 11.9995233,35.1443601 11.9995233,45.9030183 C11.9995233,46.5755059 12.0195278,47.2411792 12.0587161,47.8988413 L11.9403306,47.8988413 C11.9795189,47.2411792 11.9995233,46.5755059 11.9995233,45.9030183 C11.9995233,35.1449027 6.87999698,26.1307203 0.000316797744,23.7600085 L0.000316797744,23.3401457 C6.87999698,20.9694339 11.9995233,11.9552515 11.9995233,1.19713591 C11.9995233,0.795765621 11.9923973,0.396822766 11.9783197,0.000561784829 L12.0018764,-0.00039877354 C12.0003098,0.132398878 11.9995233,0.265473775 11.9995233,0.398816585 Z" id="Combined-Shape-Copy-16"></path>
                        <path d="M11.9995233,47.4996569 C11.9995233,58.258315 17.1195661,67.2728641 23.9997708,69.6430254 L23.9997708,70.8604902 C17.1195661,73.2306514 11.9995233,82.2452005 11.9995233,93.0038586 C11.9995233,93.6763462 12.0195278,94.3420195 12.0587161,94.9996816 L11.9403306,94.9996816 C11.9795189,94.3420195 11.9995233,93.6763462 11.9995233,93.0038586 C11.9995233,82.2457431 6.87999698,73.2315607 0.000316797744,70.8608488 L0.000316797744,70.440986 C6.87999698,68.0702742 11.9995233,59.0560918 11.9995233,48.2979762 C11.9995233,47.896606 11.9923973,47.4976631 11.9783197,47.1014021 L12.0018764,47.1004416 C12.0003098,47.2332392 11.9995233,47.3663141 11.9995233,47.4996569 Z" id="Combined-Shape-Copy-19"></path>
                        <path d="M43.9995233,22.7433544 C43.9995233,33.5020125 49.1195661,42.5165616 55.9997708,44.8867228 L55.9997708,46.1041876 C49.1195661,48.4743489 43.9995233,57.488898 43.9995233,68.2475561 C43.9995233,68.9200437 44.0195278,69.585717 44.0587161,70.2433791 L43.9403306,70.2433791 C43.9795189,69.585717 43.9995233,68.9200437 43.9995233,68.2475561 C43.9995233,57.4894405 38.879997,48.4752581 32.0003168,46.1045463 L32.0003168,45.6846835 C38.879997,43.3139717 43.9995233,34.2997893 43.9995233,23.5416737 C43.9995233,23.1403034 43.9923973,22.7413606 43.9783197,22.3450996 L44.0018764,22.344139 C44.0003098,22.4769367 43.9995233,22.6100116 43.9995233,22.7433544 Z" id="Combined-Shape-Copy-20"></path>
                        <path d="M75.9995233,47.4996569 C75.9995233,58.258315 81.1195661,67.2728641 87.9997708,69.6430254 L87.9997708,70.8604902 C81.1195661,73.2306514 75.9995233,82.2452005 75.9995233,93.0038586 C75.9995233,93.6763462 76.0195278,94.3420195 76.0587161,94.9996816 L75.9403306,94.9996816 C75.9795189,94.3420195 75.9995233,93.6763462 75.9995233,93.0038586 C75.9995233,82.2457431 70.879997,73.2315607 64.0003168,70.8608488 L64.0003168,70.440986 C70.879997,68.0702742 75.9995233,59.0560918 75.9995233,48.2979762 C75.9995233,47.896606 75.9923973,47.4976631 75.9783197,47.1014021 L76.0018764,47.1004416 C76.0003098,47.2332392 75.9995233,47.3663141 75.9995233,47.4996569 Z" id="Combined-Shape-Copy-21"></path>
                        <path d="M43.9995233,0.398816585 C43.9995233,11.1574747 49.1195661,20.1720238 55.9997708,22.542185 L55.9997708,23.7596498 C49.1195661,26.1298111 43.9995233,35.1443601 43.9995233,45.9030183 C43.9995233,46.5755059 44.0195278,47.2411792 44.0587161,47.8988413 L43.9403306,47.8988413 C43.9795189,47.2411792 43.9995233,46.5755059 43.9995233,45.9030183 C43.9995233,35.1449027 38.879997,26.1307203 32.0003168,23.7600085 L32.0003168,23.3401457 C38.879997,20.9694339 43.9995233,11.9552515 43.9995233,1.19713591 C43.9995233,0.795765621 43.9923973,0.396822766 43.9783197,0.000561784829 L44.0018764,-0.00039877354 C44.0003098,0.132398878 43.9995233,0.265473775 43.9995233,0.398816585 Z" id="Combined-Shape-Copy-17"></path>
                        <path d="M75.9995233,0.398816585 C75.9995233,11.1574747 81.1195661,20.1720238 87.9997708,22.542185 L87.9997708,23.7596498 C81.1195661,26.1298111 75.9995233,35.1443601 75.9995233,45.9030183 C75.9995233,46.5755059 76.0195278,47.2411792 76.0587161,47.8988413 L75.9403306,47.8988413 C75.9795189,47.2411792 75.9995233,46.5755059 75.9995233,45.9030183 C75.9995233,35.1449027 70.879997,26.1307203 64.0003168,23.7600085 L64.0003168,23.3401457 C70.879997,20.9694339 75.9995233,11.9552515 75.9995233,1.19713591 C75.9995233,0.795765621 75.9923973,0.396822766 75.9783197,0.000561784829 L76.0018764,-0.00039877354 C76.0003098,0.132398878 75.9995233,0.265473775 75.9995233,0.398816585 Z" id="Combined-Shape-Copy-18"></path>
                    </g>
                    <path d="M103.812342,8.23264727 C103.812342,13.1973662 105.945386,17.3573018 108.811826,18.4514837 L108.811826,19.0138108 C105.945386,20.1079928 103.812342,24.2679284 103.812342,29.2326473 C103.812342,29.400402 103.814777,29.5672378 103.819594,29.7330676 L103.80509,29.7330676 C103.809906,29.5672378 103.812342,29.400402 103.812342,29.2326473 C103.812342,24.2679284 101.679298,20.1079928 98.8128573,19.0138108 L98.8128573,18.4514837 C101.679298,17.3573018 103.812342,13.1973662 103.812342,8.23264727 C103.812342,8.06469284 103.809901,7.89765944 103.805073,7.73163461 L103.819611,7.73163461 C103.814783,7.89765944 103.812342,8.06469284 103.812342,8.23264727 Z" id="'"></path>
                    <g id="I">
                        <path d="M11.9992066,0.398826147 C11.9992066,11.1470626 17.1192493,20.1528794 23.999454,22.5207448 L23.999454,23.7370302 C17.1192493,26.1048956 11.9992066,35.1107124 11.9992066,45.8589488 C11.9992066,46.5307851 12.019211,47.1958135 12.0583993,47.8528386 L11.9400138,47.8528386 C11.9792021,47.1958135 11.9992066,46.5307851 11.9992066,45.8589488 C11.9992066,35.1112545 6.87968018,26.1058039 6.10622664e-15,23.7373885 L6.10622664e-15,23.3179325 C6.87968018,20.9495171 11.9992066,11.9440665 11.9992066,1.19637216 C11.9992066,0.795389804 11.9920805,0.396832544 11.9780028,0.000954573376 L12.0015596,-1.40165657e-14 C11.999993,0.132668184 11.9992066,0.26561334 11.9992066,0.398826147 Z" id="Combined-Shape-Copy-14"></path>
                        <path d="M76.9992066,0.398826147 C76.9992066,11.1470626 82.1192493,20.1528794 88.999454,22.5207448 L88.999454,23.7370302 C82.1192493,26.1048956 76.9992066,35.1107124 76.9992066,45.8589488 C76.9992066,46.5307851 77.019211,47.1958135 77.0583993,47.8528386 L76.9400138,47.8528386 C76.9792021,47.1958135 76.9992066,46.5307851 76.9992066,45.8589488 C76.9992066,35.1112545 71.8796802,26.1058039 65,23.7373885 L65,23.3179325 C71.8796802,20.9495171 76.9992066,11.9440665 76.9992066,1.19637216 C76.9992066,0.795389804 76.9920805,0.396832544 76.9780028,0.000954573376 L77.0015596,-1.40165657e-14 C76.999993,0.132668184 76.9992066,0.26561334 76.9992066,0.398826147 Z" id="Combined-Shape-Copy-14"></path>
                        <path d="M44.5995233,0.39843026 C44.5995233,11.1466667 49.7195661,20.1524836 56.5997708,22.5203489 L56.5997708,23.7366343 C49.7195661,26.1044997 44.5995233,35.1103165 44.5995233,45.858553 C44.5995233,46.5303892 44.6195278,47.1954176 44.6587161,47.8524427 L44.5403306,47.8524427 C44.5795189,47.1954176 44.5995233,46.5303892 44.5995233,45.858553 C44.5995233,35.1108586 39.479997,26.105408 32.6003168,23.7369926 L32.6003168,23.3175366 C39.479997,20.9491212 44.5995233,11.9436707 44.5995233,1.19597627 C44.5995233,0.794993917 44.5923973,0.396436657 44.5783196,0.000558686148 L44.6018764,-0.000395887228 C44.6003098,0.132272297 44.5995233,0.265217452 44.5995233,0.39843026 Z" id="Combined-Shape-Copy-31"></path>
                        <path d="M44.9992066,81.3988261 C44.9992066,92.1470626 50.1192493,101.152879 56.999454,103.520745 L56.999454,104.73703 C50.1192493,107.104896 44.9992066,116.110712 44.9992066,126.858949 C44.9992066,127.530785 45.019211,128.195813 45.0583993,128.852839 L44.9400138,128.852839 C44.9792021,128.195813 44.9992066,127.530785 44.9992066,126.858949 C44.9992066,116.111254 39.8796802,107.105804 33,104.737389 L33,104.317932 C39.8796802,101.949517 44.9992066,92.9440665 44.9992066,82.1963722 C44.9992066,81.7953898 44.9920805,81.3968325 44.9780028,81.0009546 L45.0015596,81 C44.999993,81.1326682 44.9992066,81.2656133 44.9992066,81.3988261 Z" id="Combined-Shape-Copy-32"></path>
                        <path d="M44.9992066,41.3988261 C44.9992066,52.1470626 50.1192493,61.1528794 56.999454,63.5207448 L56.999454,64.7370302 C50.1192493,67.1048956 44.9992066,76.1107124 44.9992066,86.8589488 C44.9992066,87.5307851 45.019211,88.1958135 45.0583993,88.8528386 L44.9400138,88.8528386 C44.9792021,88.1958135 44.9992066,87.5307851 44.9992066,86.8589488 C44.9992066,76.1112545 39.8796802,67.1058039 33,64.7373885 L33,64.3179325 C39.8796802,61.9495171 44.9992066,52.9440665 44.9992066,42.1963722 C44.9992066,41.7953898 44.9920805,41.3968325 44.9780028,41.0009546 L45.0015596,41 C44.999993,41.1326682 44.9992066,41.2656133 44.9992066,41.3988261 Z" id="Combined-Shape-Copy-33"></path>
                        <path d="M12.9992066,81.3988261 C12.9992066,92.1470626 18.1192493,101.152879 24.999454,103.520745 L24.999454,104.73703 C18.1192493,107.104896 12.9992066,116.110712 12.9992066,126.858949 C12.9992066,127.530785 13.019211,128.195813 13.0583993,128.852839 L12.9400138,128.852839 C12.9792021,128.195813 12.9992066,127.530785 12.9992066,126.858949 C12.9992066,116.111254 7.87968018,107.105804 1,104.737389 L1,104.317932 C7.87968018,101.949517 12.9992066,92.9440665 12.9992066,82.1963722 C12.9992066,81.7953898 12.9920805,81.3968325 12.9780028,81.0009546 L13.0015596,81 C12.999993,81.1326682 12.9992066,81.2656133 12.9992066,81.3988261 Z" id="Combined-Shape-Copy-14"></path>
                        <path d="M76.9992066,81.3988261 C76.9992066,92.1470626 82.1192493,101.152879 88.999454,103.520745 L88.999454,104.73703 C82.1192493,107.104896 76.9992066,116.110712 76.9992066,126.858949 C76.9992066,127.530785 77.019211,128.195813 77.0583993,128.852839 L76.9400138,128.852839 C76.9792021,128.195813 76.9992066,127.530785 76.9992066,126.858949 C76.9992066,116.111254 71.8796802,107.105804 65,104.737389 L65,104.317932 C71.8796802,101.949517 76.9992066,92.9440665 76.9992066,82.1963722 C76.9992066,81.7953898 76.9920805,81.3968325 76.9780028,81.0009546 L77.0015596,81 C76.999993,81.1326682 76.9992066,81.2656133 76.9992066,81.3988261 Z" id="Combined-Shape-Copy-14"></path>
                    </g>
                </g>
            </g>
        </g>
    </g>
</svg>